<svg width="252" height="128" viewBox="0 0 252 128" fill="none" xmlns="http://www.w3.org/2000/svg">
<path d="M138.249 78.9903C139.335 77.2959 140.834 75.9274 142.746 74.8847C144.657 73.842 146.895 73.3207 149.458 73.3207C152.456 73.3207 155.171 74.081 157.604 75.6015C160.037 77.1221 161.948 79.2944 163.339 82.1183C164.772 84.9422 165.489 88.2223 165.489 91.9586C165.489 95.6949 164.772 98.9967 163.339 101.864C161.948 104.688 160.037 106.882 157.604 108.446C155.171 109.967 152.456 110.727 149.458 110.727C146.938 110.727 144.701 110.205 142.746 109.163C140.834 108.12 139.335 106.773 138.249 105.122V127.54H127.105V73.842H138.249V78.9903ZM154.15 91.9586C154.15 89.1781 153.368 87.0059 151.804 85.4418C150.283 83.8344 148.394 83.0306 146.134 83.0306C143.919 83.0306 142.029 83.8344 140.465 85.4418C138.944 87.0493 138.184 89.2433 138.184 92.0238C138.184 94.8042 138.944 96.9982 140.465 98.6057C142.029 100.213 143.919 101.017 146.134 101.017C148.35 101.017 150.24 100.213 151.804 98.6057C153.368 96.9548 154.15 94.7391 154.15 91.9586Z" fill="#344CB7"/>
<path d="M102.165 110.727C98.6022 110.727 95.3873 109.967 92.5199 108.446C89.696 106.925 87.4586 104.753 85.8077 101.929C84.2002 99.1053 83.3965 95.8035 83.3965 92.0238C83.3965 88.2875 84.2219 85.0074 85.8729 82.1835C87.5238 79.3161 89.7829 77.1221 92.6503 75.6015C95.5176 74.081 98.7326 73.3207 102.295 73.3207C105.858 73.3207 109.072 74.081 111.94 75.6015C114.807 77.1221 117.066 79.3161 118.717 82.1835C120.368 85.0074 121.194 88.2875 121.194 92.0238C121.194 95.76 120.346 99.0618 118.652 101.929C117.001 104.753 114.72 106.925 111.81 108.446C108.942 109.967 105.727 110.727 102.165 110.727ZM102.165 101.082C104.294 101.082 106.096 100.3 107.574 98.736C109.094 97.172 109.854 94.9346 109.854 92.0238C109.854 89.1129 109.116 86.8755 107.639 85.3115C106.205 83.7475 104.424 82.9655 102.295 82.9655C100.123 82.9655 98.3198 83.7475 96.8862 85.3115C95.4525 86.8321 94.7356 89.0695 94.7356 92.0238C94.7356 94.9346 95.4307 97.172 96.821 98.736C98.2547 100.3 100.036 101.082 102.165 101.082Z" fill="#344CB7"/>
<path d="M64.0531 73.4511C68.2239 73.4511 71.5691 74.8413 74.0889 77.6218C76.6087 80.3588 77.8686 84.1385 77.8686 88.9609V110.206H66.7902V90.4598C66.7902 88.0268 66.1602 86.137 64.9003 84.7902C63.6404 83.4434 61.946 82.77 59.8172 82.77C57.6884 82.77 55.9941 83.4434 54.7342 84.7902C53.4743 86.137 52.8443 88.0268 52.8443 90.4598V110.206H41.7007V61.9816H52.8443V78.7296C53.9739 77.1222 55.5162 75.8405 57.4712 74.8847C59.4262 73.9289 61.6202 73.4511 64.0531 73.4511Z" fill="#344CB7"/>
<path d="M18.1601 110.662C14.8148 110.662 11.8171 110.119 9.16698 109.032C6.51683 107.946 4.38803 106.339 2.78056 104.21C1.21654 102.081 0.391089 99.5179 0.304199 96.5202H12.1647C12.3385 98.2146 12.925 99.5179 13.9242 100.43C14.9234 101.299 16.2268 101.734 17.8343 101.734C19.4852 101.734 20.7885 101.364 21.7443 100.626C22.7001 99.8438 23.178 98.7794 23.178 97.4326C23.178 96.303 22.787 95.3689 22.005 94.6304C21.2664 93.8918 20.3323 93.2836 19.2028 92.8057C18.1166 92.3278 16.5526 91.7847 14.5107 91.1765C11.5565 90.2642 9.14526 89.3518 7.27712 88.4395C5.40899 87.5271 3.80152 86.1803 2.45473 84.3991C1.10793 82.6178 0.434534 80.2935 0.434534 77.4262C0.434534 73.1685 1.97683 69.845 5.06143 67.4555C8.14602 65.0226 12.1647 63.8062 17.1174 63.8062C22.157 63.8062 26.2191 65.0226 29.3037 67.4555C32.3883 69.845 34.0392 73.1903 34.2565 77.4913H22.2005C22.1136 76.0142 21.5705 74.8629 20.5713 74.0375C19.5721 73.1686 18.2904 72.7341 16.7264 72.7341C15.3796 72.7341 14.2935 73.1034 13.468 73.8419C12.6426 74.5371 12.2299 75.558 12.2299 76.9048C12.2299 78.3819 12.925 79.5332 14.3152 80.3587C15.7055 81.1842 17.8777 82.0748 20.832 83.0306C23.7862 84.0298 26.1757 84.9856 28.0004 85.8979C29.8685 86.8103 31.476 88.1354 32.8228 89.8732C34.1696 91.611 34.843 93.8484 34.843 96.5854C34.843 99.1921 34.1696 101.56 32.8228 103.689C31.5194 105.817 29.6079 107.512 27.088 108.772C24.5682 110.032 21.5922 110.662 18.1601 110.662Z" fill="#344CB7"/>
<path d="M204.991 48.7453C201.428 48.7453 198.213 47.985 195.346 46.4644C192.522 44.9438 190.285 42.7716 188.634 39.9476C187.026 37.1237 186.223 33.8219 186.223 30.0422C186.223 26.3059 187.048 23.0258 188.699 20.2019C190.35 17.3345 192.609 15.1405 195.476 13.62C198.344 12.0994 201.559 11.3391 205.121 11.3391C208.684 11.3391 211.899 12.0994 214.766 13.62C217.633 15.1405 219.893 17.3345 221.543 20.2019C223.194 23.0258 224.02 26.3059 224.02 30.0422C224.02 33.7785 223.173 37.0803 221.478 39.9476C219.827 42.7716 217.547 44.9438 214.636 46.4644C211.768 47.985 208.553 48.7453 204.991 48.7453ZM204.991 39.1005C207.12 39.1005 208.923 38.3185 210.4 36.7544C211.92 35.1904 212.681 32.953 212.681 30.0422C212.681 27.1314 211.942 24.8939 210.465 23.3299C209.031 21.7659 207.25 20.9839 205.121 20.9839C202.949 20.9839 201.146 21.7659 199.712 23.3299C198.279 24.8505 197.562 27.0879 197.562 30.0422C197.562 32.953 198.257 35.1904 199.647 36.7544C201.081 38.3185 202.862 39.1005 204.991 39.1005Z" fill="#344CB7"/>
<path d="M171.708 17.9211C173.011 15.9226 174.64 14.3586 176.595 13.229C178.55 12.056 180.722 11.4695 183.112 11.4695V23.2648H180.049C177.269 23.2648 175.183 23.873 173.793 25.0895C172.403 26.2625 171.708 28.3479 171.708 31.3456V48.2239H160.564V11.8605H171.708V17.9211Z" fill="#344CB7"/>
<path d="M154.357 38.7746V48.2239H148.687C144.647 48.2239 141.497 47.2464 139.238 45.2914C136.979 43.2929 135.849 40.0563 135.849 35.5814V21.1142H131.418V11.8605H135.849V2.99768H146.993V11.8605H154.292V21.1142H146.993V35.7118C146.993 36.7979 147.254 37.5799 147.775 38.0578C148.296 38.5357 149.165 38.7746 150.382 38.7746H154.357Z" fill="#344CB7"/>
<path d="M92.417 30.0422C92.417 26.2625 93.1773 22.9606 94.6978 20.1367C96.2619 17.3128 98.4124 15.1405 101.149 13.62C103.93 12.0994 107.101 11.3391 110.664 11.3391C115.226 11.3391 119.027 12.5338 122.068 14.9233C125.153 17.3128 127.173 20.6798 128.129 25.0243H116.268C115.269 22.2438 113.336 20.8536 110.468 20.8536C108.426 20.8536 106.797 21.6573 105.581 23.2648C104.364 24.8288 103.756 27.0879 103.756 30.0422C103.756 32.9964 104.364 35.2773 105.581 36.8848C106.797 38.4488 108.426 39.2308 110.468 39.2308C113.336 39.2308 115.269 37.8406 116.268 35.0601H128.129C127.173 39.3177 125.153 42.663 122.068 45.0959C118.984 47.5288 115.182 48.7453 110.664 48.7453C107.101 48.7453 103.93 47.985 101.149 46.4644C98.4124 44.9438 96.2619 42.7716 94.6978 39.9476C93.1773 37.1237 92.417 33.8219 92.417 30.0422Z" fill="#344CB7"/>
<path d="M88.7541 29.4557C88.7541 30.4984 88.6889 31.5845 88.5586 32.7141H63.3387C63.5125 34.9732 64.2294 36.711 65.4893 37.9274C66.7926 39.1005 68.3783 39.687 70.2465 39.687C73.027 39.687 74.9603 38.514 76.0464 36.1679H87.9069C87.2987 38.5574 86.1908 40.7079 84.5833 42.6195C83.0193 44.5311 81.0426 46.0299 78.6531 47.1161C76.2636 48.2022 73.5918 48.7453 70.6375 48.7453C67.075 48.7453 63.9035 47.985 61.123 46.4644C58.3426 44.9438 56.1703 42.7716 54.6063 39.9476C53.0423 37.1237 52.2603 33.8219 52.2603 30.0422C52.2603 26.2625 53.0205 22.9606 54.5411 20.1367C56.1051 17.3128 58.2774 15.1405 61.0579 13.62C63.8383 12.0994 67.0316 11.3391 70.6375 11.3391C74.1565 11.3391 77.2846 12.0777 80.0216 13.5548C82.7586 15.0319 84.8875 17.139 86.408 19.8761C87.972 22.6131 88.7541 25.8063 88.7541 29.4557ZM77.3497 26.5231C77.3497 24.6116 76.6981 23.091 75.3947 21.9614C74.0914 20.8318 72.4622 20.2671 70.5072 20.2671C68.639 20.2671 67.0533 20.8101 65.7499 21.8962C64.49 22.9824 63.708 24.5247 63.4039 26.5231H77.3497Z" fill="#344CB7"/>
<path d="M46.4005 0V48.2239H35.2568V0H46.4005Z" fill="#344CB7"/>
<path d="M11.1436 11.4044V20.6582H26.067V29.2603H11.1436V39.2961H28.022V48.224H0V2.47644H28.022V11.4044H11.1436Z" fill="#344CB7"/>
<path fill-rule="evenodd" clip-rule="evenodd" d="M182.178 68.3793H240.338C240.564 68.3793 240.748 68.5708 240.748 68.809V104.899C240.748 105.137 240.564 105.329 240.338 105.329H182.178C181.951 105.329 181.768 105.137 181.768 104.899V68.809C181.768 68.5708 181.951 68.3793 182.178 68.3793ZM251.178 113.047H171.42V115.594C171.42 116.293 171.822 116.938 172.475 117.418C173.166 117.926 174.131 118.243 175.197 118.243H247.404C248.471 118.243 249.432 117.926 250.127 117.418C250.779 116.942 251.182 116.293 251.182 115.594V113.047H251.178ZM172.53 112.188H250.057L245.08 109.2L177.482 109.176L172.529 112.192L172.53 112.188ZM207.8 116.325C207.347 116.325 206.98 115.942 206.98 115.465C206.98 114.993 207.347 114.606 207.8 114.606H214.804C215.257 114.606 215.628 114.989 215.628 115.465C215.628 115.938 215.261 116.325 214.804 116.325H207.8ZM210.222 78.3047C210.148 78.2695 210.066 78.2539 209.98 78.2695C209.757 78.3047 209.605 78.5273 209.64 78.7578L212.073 94.6208C212.089 94.7263 212.14 94.8278 212.23 94.8981C212.409 95.0427 212.667 95.0075 212.804 94.82L215.691 90.902L219.698 97.2497C219.706 97.2614 219.714 97.2771 219.722 97.2888C219.859 97.4802 220.112 97.5192 220.296 97.3786L224.491 94.1247C224.507 94.113 224.526 94.0974 224.542 94.0817C224.706 93.9216 224.714 93.6482 224.562 93.4763L219.429 87.8005L224.023 86.0505C224.124 86.0153 224.21 85.9372 224.261 85.8317C224.359 85.6208 224.273 85.363 224.07 85.2614L210.222 78.3083L210.222 78.3047ZM178.804 108.313L178.812 108.32L243.675 108.344L243.682 108.336C243.897 108.164 244.077 107.945 244.198 107.688C244.315 107.442 244.382 107.168 244.382 106.875V66.8282C244.382 66.3282 244.186 65.8711 243.866 65.5391C243.55 65.207 243.112 65.0039 242.632 65.0039L179.89 65C179.409 65 178.972 65.207 178.655 65.5352C178.339 65.8672 178.14 66.3242 178.14 66.8243V106.875C178.14 107.16 178.202 107.43 178.315 107.668C178.433 107.918 178.601 108.137 178.808 108.309L178.804 108.313Z" fill="#577BC1"/>
</svg>
